<svg>
  <path
    d="M1.125 0C.502 0 0 .502 0 1.125v21.75C0 23.498.502 24 1.125 24h21.75c.623 0 1.125-.502 1.125-1.125V1.125C24 .502 23.498 0 22.875 0H1.125zm17.163 17.652c.117.848.487 1.487 1.487 1.487 1.343 0 1.734-.848 1.734-1.734 0-1.343-.848-1.734-2.14-2.463-1.65-.92-3.15-1.848-3.15-4.212 0-2.363 1.848-3.924 4.394-3.924 2.546 0 4.27 1.487 4.27 3.924h-2.363c-.117-.848-.487-1.487-1.487-1.487-1.343 0-1.734.848-1.734 1.734 0 1.343.848 1.734 2.14 2.463 1.65.92 3.15 1.848 3.15 4.212 0 2.363-1.848 3.924-4.394 3.924-2.546 0-4.27-1.487-4.27-3.924h2.363zm-10.22-6.525h-3.41v10.62h-2.363V11.127h-3.41V8.764h9.183v2.363z" />
</svg>