<svg>
  <path fill-rule="evenodd" clip-rule="evenodd"
    d="M3.64987 12.6176C10.0923 9.81068 14.3883 7.96022 16.5378 7.06617C22.675 4.51348 23.9503 4.07005 24.7815 4.05541C24.9643 4.05218 25.3731 4.09749 25.6379 4.31234C25.8614 4.49376 25.9229 4.73882 25.9524 4.91082C25.9818 5.08282 26.0185 5.47465 25.9893 5.7808C25.6568 9.27525 24.2177 17.7553 23.4856 21.6692C23.1758 23.3253 22.5658 23.8806 21.9753 23.9349C20.6919 24.053 19.7174 23.0868 18.4744 22.272C16.5294 20.997 15.4305 20.2033 13.5425 18.9591C11.3606 17.5213 12.7751 16.731 14.0185 15.4395C14.344 15.1015 19.9985 9.9583 20.1079 9.49173C20.1216 9.43338 20.1343 9.21587 20.0051 9.10101C19.8759 8.98616 19.6851 9.02544 19.5475 9.05667C19.3524 9.10095 16.2452 11.1547 10.2258 15.218C9.34386 15.8236 8.545 16.1187 7.82924 16.1032C7.04018 16.0862 5.52233 15.6571 4.39397 15.2903C3.00999 14.8404 1.91003 14.6025 2.00581 13.8385C2.0557 13.4406 2.60372 13.0336 3.64987 12.6176Z"
    fill="currentColor" />
</svg>