<svg>
  <path
    d="M5.6 10.4V14H10.4V10.4H5.6ZM3.2 6.8H20V5C20 4.00589 19.1941 3.2 18.2 3.2H5C4.00589 3.2 3.2 4.00589 3.2 5V6.8ZM15.7998 8H3.2V19.4C3.2 20.3941 4.00589 21.2 5 21.2H15.2V20H13.4C13.0686 20 12.8 19.7314 12.8 19.4C12.8 19.0686 13.0686 18.8 13.4 18.8H15.2V17.6H13.4C13.0686 17.6 12.8 17.3314 12.8 17C12.8 16.6686 13.0686 16.4 13.4 16.4H15.2V15.2H13.4C13.0686 15.2 12.8 14.9314 12.8 14.6V9.8C12.8 9.46863 13.0686 9.2 13.4 9.2H15.26C15.35 8.75667 15.5378 8.34885 15.7998 8ZM21.2 6.8H23C24.6569 6.8 26 8.14315 26 9.8V23C26 24.6569 24.6569 26 23 26H18.2C16.5431 26 15.2 24.6569 15.2 23V22.4H5C3.34315 22.4 2 21.0569 2 19.4V5C2 3.34315 3.34315 2 5 2H18.2C19.8569 2 21.2 3.34315 21.2 5V6.8ZM15.2 14V10.4H14V14H15.2ZM5 9.2H11C11.3314 9.2 11.6 9.46863 11.6 9.8V14.6C11.6 14.9314 11.3314 15.2 11 15.2H5C4.66863 15.2 4.4 14.9314 4.4 14.6V9.8C4.4 9.46863 4.66863 9.2 5 9.2ZM16.4 9.8V23C16.4 23.9941 17.2059 24.8 18.2 24.8H23C23.9941 24.8 24.8 23.9941 24.8 23V9.8C24.8 8.80589 23.9941 8 23 8H18.2C17.2059 8 16.4 8.80589 16.4 9.8ZM5 17.6C4.66863 17.6 4.4 17.3314 4.4 17C4.4 16.6686 4.66863 16.4 5 16.4H11C11.3314 16.4 11.6 16.6686 11.6 17C11.6 17.3314 11.3314 17.6 11 17.6H5ZM5 20C4.66863 20 4.4 19.7314 4.4 19.4C4.4 19.0686 4.66863 18.8 5 18.8H8.6C8.93137 18.8 9.2 19.0686 9.2 19.4C9.2 19.7314 8.93137 20 8.6 20H5ZM18.2 10.4H23C23.3314 10.4 23.6 10.6686 23.6 11V13.4C23.6 13.7314 23.3314 14 23 14H18.2C17.8686 14 17.6 13.7314 17.6 13.4V11C17.6 10.6686 17.8686 10.4 18.2 10.4ZM18.8 11.6V12.8H22.4V11.6H18.8ZM18.2 16.4C17.8686 16.4 17.6 16.1314 17.6 15.8C17.6 15.4686 17.8686 15.2 18.2 15.2H23C23.3314 15.2 23.6 15.4686 23.6 15.8C23.6 16.1314 23.3314 16.4 23 16.4H18.2ZM18.2 18.8C17.8686 18.8 17.6 18.5314 17.6 18.2C17.6 17.8686 17.8686 17.6 18.2 17.6H21.8C22.1314 17.6 22.4 17.8686 22.4 18.2C22.4 18.5314 22.1314 18.8 21.8 18.8H18.2ZM4.4 4.4H5.6V5.6H4.4V4.4ZM6.8 4.4H8V5.6H6.8V4.4ZM9.2 4.4H10.4V5.6H9.2V4.4ZM19.4 23.6C19.0686 23.6 18.8 23.3314 18.8 23C18.8 22.6686 19.0686 22.4 19.4 22.4H21.8C22.1314 22.4 22.4 22.6686 22.4 23C22.4 23.3314 22.1314 23.6 21.8 23.6H19.4Z"
    fill="currentColor" />
</svg>