<svg>
  <path
    d="M13.9834 14.4094C10.5933 14.4094 7.77569 11.5941 7.77569 8.26288C7.77569 4.81643 10.5933 2 13.9846 2C17.491 2 20.1923 4.81524 20.1923 8.26288C20.1862 9.89856 19.531 11.4649 18.3706 12.6177C17.2101 13.7705 15.6395 14.4153 14.0038 14.4106L13.9834 14.4094ZM13.9834 5.62045C12.5482 5.62045 11.4561 6.82646 11.4561 8.26408C11.4561 9.6993 12.5482 10.7913 13.9846 10.7913C15.4786 10.7913 16.513 9.6993 16.513 8.26408C16.5142 6.82526 15.4786 5.62045 13.9834 5.62045ZM16.4554 19.5238L19.9631 22.9139C20.6531 23.6591 20.6531 24.7511 19.9631 25.4411C19.2166 26.1863 18.0658 26.1863 17.491 25.4411L13.9846 21.9934L10.5933 25.4411C10.2489 25.7855 9.78812 25.9571 9.26971 25.9571C8.8677 25.9571 8.4081 25.7843 8.00489 25.4411C7.31488 24.7511 7.31488 23.6591 8.00489 22.9127L11.5689 19.5226C10.2818 19.1415 9.04715 18.6017 7.89329 17.9158C7.03048 17.4562 6.85888 16.3078 7.31848 15.445C7.89329 14.5834 8.9277 14.3542 9.84812 14.929C11.0945 15.6895 12.5263 16.0919 13.9864 16.0919C15.4465 16.0919 16.8783 15.6895 18.1246 14.929C19.045 14.3542 20.1359 14.5834 20.6531 15.445C21.1715 16.3078 20.9399 17.455 20.1347 17.9158C19.0438 18.6058 17.779 19.123 16.4566 19.525L16.4554 19.5238Z"
    fill="currentColor" />
</svg>