<svg>
  <path fill-rule="evenodd" clip-rule="evenodd"
    d="M8.12 2H19.88C23.2604 2 26 4.7396 26 8.12V19.88C26 23.2604 23.2604 26 19.88 26H8.12C4.7396 26 2 23.2604 2 19.88V8.12C2 4.7396 4.7396 2 8.12 2ZM19.3196 4.4H8.6804C7.54517 4.4 6.45643 4.85097 5.6537 5.6537C4.85097 6.45643 4.4 7.54517 4.4 8.6804V19.3196C4.4 20.4548 4.85097 21.5436 5.6537 22.3463C6.45643 23.149 7.54517 23.6 8.6804 23.6H19.3196C20.4548 23.6 21.5436 23.149 22.3463 22.3463C23.149 21.5436 23.6 20.4548 23.6 19.3196V8.6804C23.6 7.54517 23.149 6.45643 22.3463 5.6537C21.5436 4.85097 20.4548 4.4 19.3196 4.4ZM14 7.6004C14.8404 7.6004 15.6726 7.76593 16.449 8.08754C17.2255 8.40915 17.9309 8.88054 18.5252 9.4748C19.1195 10.0691 19.5909 10.7745 19.9125 11.551C20.2341 12.3274 20.3996 13.1596 20.3996 14C20.3996 14.8404 20.2341 15.6726 19.9125 16.449C19.5909 17.2255 19.1195 17.9309 18.5252 18.5252C17.9309 19.1195 17.2255 19.5909 16.449 19.9125C15.6726 20.2341 14.8404 20.3996 14 20.3996C12.3027 20.3996 10.675 19.7254 9.4748 18.5252C8.27464 17.325 7.6004 15.6973 7.6004 14C7.6004 12.3027 8.27464 10.675 9.4748 9.4748C10.675 8.27464 12.3027 7.6004 14 7.6004ZM14 10.0004C13.4748 10.0004 12.9547 10.1039 12.4694 10.3049C11.9842 10.5059 11.5433 10.8005 11.1719 11.1719C10.8005 11.5433 10.5059 11.9842 10.3049 12.4694C10.1039 12.9547 10.0004 13.4748 10.0004 14C10.0004 14.5252 10.1039 15.0453 10.3049 15.5306C10.5059 16.0158 10.8005 16.4567 11.1719 16.8281C11.5433 17.1995 11.9842 17.4942 12.4694 17.6951C12.9547 17.8961 13.4748 17.9996 14 17.9996C15.0608 17.9996 16.0781 17.5782 16.8281 16.8281C17.5782 16.0781 17.9996 15.0608 17.9996 14C17.9996 12.9392 17.5782 11.9219 16.8281 11.1719C16.0781 10.4218 15.0608 10.0004 14 10.0004ZM20.2004 7.1996C20.5718 7.1996 20.928 7.34714 21.1906 7.60977C21.4533 7.87239 21.6008 8.22859 21.6008 8.6C21.6008 8.97141 21.4533 9.32761 21.1906 9.59023C20.928 9.85286 20.5718 10.0004 20.2004 10.0004C19.829 10.0004 19.4728 9.85286 19.2102 9.59023C18.9475 9.32761 18.8 8.97141 18.8 8.6C18.8 8.22859 18.9475 7.87239 19.2102 7.60977C19.4728 7.34714 19.829 7.1996 20.2004 7.1996Z"
    fill="currentColor" />
</svg>