<svg>
  <path
    d="M20.1785 11.7611C20.1785 11.7611 21.204 10.9814 20.4244 10.2018C19.643 9.42218 18.8844 10.4284 18.8844 10.4284L12.7865 16.5272C12.7865 16.5272 10.9464 18.8993 9.5525 17.4634C8.15862 16.0276 10.4887 14.2294 10.4887 14.2294L19.0279 5.68943C19.0279 5.68943 21.4289 3.0443 23.6846 5.30005C25.9404 7.55668 23.2882 9.96292 23.2882 9.96292L11.7269 21.5252C11.7269 21.5252 8.02737 25.7987 4.60175 22.3731C1.17612 18.9474 5.49075 15.2899 5.49075 15.2899L14.2705 6.51018C14.2705 6.51018 15.2549 5.68943 14.5164 4.95093C13.7779 4.21243 12.958 5.1968 12.958 5.1968L2.88675 15.2689C2.88675 15.2689 -0.915128 19.4401 3.33125 23.6847C7.57762 27.9311 11.7479 24.13 11.7479 24.13L25.5921 10.2849C25.5921 10.2849 28.3606 7.22855 25.0592 3.92543C21.7579 0.6223 18.6997 3.39255 18.6997 3.39255L8.541 13.5522C8.541 13.5522 5.48725 16.0319 8.25662 18.8004C11.026 21.5689 13.4637 18.4749 13.4637 18.4749L20.1785 11.7611Z"
    fill="currentColor" />
</svg>