<svg>
  <path
    d="M14 17.6C15.9882 17.6 17.6 15.9882 17.6 14C17.6 12.0118 15.9882 10.4 14 10.4C12.0118 10.4 10.4 12.0118 10.4 14C10.4 15.9882 12.0118 17.6 14 17.6Z"
    stroke="currentColor" stroke-width="2" />
  <path
    d="M16.1185 2.18269C15.6774 2 15.1183 2 14 2C12.8817 2 12.3227 2 11.8815 2.18269C11.2935 2.42628 10.8263 2.8935 10.5827 3.48156C10.4715 3.75001 10.428 4.0622 10.411 4.51759C10.3859 5.18682 10.0427 5.80627 9.46275 6.14112C8.88279 6.47595 8.17473 6.46345 7.58265 6.15051C7.17976 5.93756 6.88763 5.81914 6.59955 5.78122C5.96847 5.69814 5.33024 5.86915 4.82525 6.25664C4.44651 6.54726 4.16695 7.03148 3.60782 7.99992C3.04869 8.96836 2.76913 9.45258 2.70681 9.92589C2.62373 10.557 2.79475 11.1952 3.18224 11.7002C3.35909 11.9307 3.60766 12.1244 3.99345 12.3668C4.56058 12.7232 4.92549 13.3303 4.92545 14C4.92542 14.6697 4.56052 15.2767 3.99344 15.633C3.6076 15.8755 3.359 16.0693 3.18212 16.2998C2.79463 16.8048 2.62361 17.4429 2.7067 18.074C2.76901 18.5473 3.04857 19.0316 3.6077 20C4.16684 20.9684 4.4464 21.4527 4.82513 21.7432C5.33012 22.1307 5.96835 22.3017 6.59943 22.2187C6.88749 22.1808 7.17961 22.0623 7.58247 21.8494C8.17459 21.5365 8.88269 21.524 9.4627 21.8588C10.0427 22.1937 10.3859 22.8132 10.411 23.4825C10.428 23.9378 10.4715 24.25 10.5827 24.5185C10.8263 25.1065 11.2935 25.5738 11.8815 25.8174C12.3227 26 12.8817 26 14 26C15.1183 26 15.6774 26 16.1185 25.8174C16.7065 25.5738 17.1738 25.1065 17.4173 24.5185C17.5285 24.25 17.5721 23.9378 17.5891 23.4824C17.6141 22.8132 17.9573 22.1937 18.5372 21.8588C19.1172 21.5239 19.8253 21.5365 20.4175 21.8494C20.8203 22.0623 21.1124 22.1806 21.4004 22.2186C22.0315 22.3017 22.6698 22.1307 23.1747 21.7432C23.5535 21.4526 23.8331 20.9684 24.3921 19.9999C24.9513 19.0315 25.2309 18.5473 25.2932 18.074C25.3763 17.4429 25.2053 16.8046 24.8178 16.2997C24.6409 16.0692 24.3923 15.8754 24.0065 15.633C23.4395 15.2767 23.0745 14.6696 23.0745 13.9999C23.0745 13.3302 23.4395 12.7233 24.0065 12.367C24.3924 12.1245 24.641 11.9308 24.8179 11.7002C25.2054 11.1953 25.3764 10.557 25.2933 9.92596C25.2311 9.45266 24.9515 8.96844 24.3923 8C23.8332 7.03156 23.5536 6.54734 23.1749 6.25672C22.6699 5.86923 22.0316 5.69822 21.4005 5.78131C21.1125 5.81923 20.8205 5.93763 20.4175 6.15056C19.8254 6.46351 19.1173 6.47602 18.5373 6.14115C17.9573 5.80629 17.6141 5.18679 17.5891 4.51753C17.5721 4.06218 17.5285 3.75 17.4173 3.48156C17.1738 2.8935 16.7065 2.42628 16.1185 2.18269Z"
    stroke="currentColor" stroke-width="2" />
</svg>