<svg>
  <path
    d="M24.2026 6.13795H3.79742C2.8047 6.13795 2 6.94265 2 7.93537V20.0647C2 21.0574 2.8047 21.8621 3.79742 21.8621H24.2026C25.1952 21.8621 26 21.0574 26 20.0647V7.93537C26 6.94265 25.1953 6.13795 24.2026 6.13795Z"
    fill="#41479B" />
  <path
    d="M25.9751 7.63822C25.8335 6.78702 25.094 6.13789 24.2026 6.13789H23.7349L16.069 11.1604V6.13794H11.931V11.1605L4.26509 6.13794H3.79742C2.906 6.13794 2.16655 6.78702 2.02489 7.63827L8.57698 11.9311H2V16.069H8.57698L2.02489 20.3617C2.16655 21.2129 2.906 21.8621 3.79742 21.8621H4.26509L11.931 16.8396V21.8621H16.069V16.8396L23.7349 21.8621H24.2026C25.094 21.8621 25.8335 21.213 25.9751 20.3617L19.423 16.0689H26V11.931H19.423L25.9751 7.63822Z"
    fill="#F5F5F5" />
  <path d="M15.2414 6.13795H12.7586V12.7586H2V15.2414H12.7586V21.8621H15.2414V15.2414H26V12.7586H15.2414V6.13795Z"
    fill="#FF4B55" />
  <path d="M3.16217 21.7462L11.9082 16.069H10.3882L2.43237 21.2333C2.62704 21.4605 2.87722 21.6385 3.16217 21.7462Z"
    fill="#FF4B55" />
  <path d="M18.237 16.069H16.7169L25.188 21.5676C25.425 21.412 25.6228 21.2017 25.7639 20.9548L18.237 16.069Z"
    fill="#FF4B55" />
  <path d="M2.18982 7.13164L9.58341 11.931H11.1035L2.72541 6.49259C2.50046 6.66003 2.31638 6.87894 2.18982 7.13164Z"
    fill="#FF4B55" />
  <path d="M17.589 11.931L25.5594 6.75721C25.3626 6.53076 25.1105 6.35376 24.8235 6.24815L16.069 11.931H17.589Z"
    fill="#FF4B55" />
</svg>