<svg width="28" height="28" viewBox="0 0 28 28" fill="none" xmlns="http://www.w3.org/2000/svg">
<path d="M12.1484 19.3686C9.05468 18.9936 6.87499 16.767 6.87499 13.8842C6.87499 12.7124 7.29687 11.4467 8 10.603C7.69532 9.82954 7.7422 8.18892 8.09375 7.50923C9.03124 7.39204 10.2969 7.88422 11.0469 8.56391C11.9375 8.28266 12.875 8.14204 14.0234 8.14204C15.1719 8.14204 16.1094 8.28266 16.9531 8.54047C17.6797 7.88422 18.9688 7.39204 19.9063 7.50923C20.2344 8.14204 20.2812 9.78266 19.9766 10.5795C20.7266 11.4702 21.125 12.6655 21.125 13.8842C21.125 16.767 18.9453 18.9467 15.8047 19.3452C16.6016 19.8608 17.1406 20.9858 17.1406 22.2749V24.7124C17.1406 25.4155 17.7266 25.8139 18.4297 25.5327C22.6719 23.9155 26 19.6733 26 14.4233C26 7.79047 20.6094 2.37641 13.9766 2.37641C7.34375 2.37641 2 7.79047 2 14.4233C2 19.6264 5.30468 23.9389 9.7578 25.5561C10.3906 25.7905 11 25.3686 11 24.7358V22.8608C10.6719 23.0014 10.25 23.0952 9.87499 23.0952C8.32811 23.0952 7.41406 22.2514 6.7578 20.6811C6.5 20.0483 6.21876 19.6733 5.67969 19.603C5.39845 19.5795 5.30468 19.4624 5.30468 19.3217C5.30468 19.0405 5.77344 18.8295 6.2422 18.8295C6.92189 18.8295 7.5078 19.2514 8.11718 20.1186C8.58594 20.7983 9.07811 21.103 9.66406 21.103C10.25 21.103 10.625 20.892 11.1641 20.353C11.5625 19.9545 11.8672 19.603 12.1484 19.3686Z" fill="black"/>
</svg>
