<svg>
  <path
    d="M3.2254 24.7746L2.0314 24.499C1.9364 24.9108 2.06018 25.3423 2.35892 25.6411C2.65768 25.9398 3.08926 26.0636 3.50094 25.9686L3.2254 24.7746ZM10.7571 18.9756C11.2357 18.4971 11.2357 17.7212 10.7571 17.2427C10.2786 16.7642 9.50271 16.7642 9.02417 17.2427L10.7571 18.9756ZM11.803 16.8097C11.803 17.148 11.5287 17.4224 11.1904 17.4224V19.8731C12.8822 19.8731 14.2538 18.5015 14.2538 16.8097H11.803ZM11.1904 17.4224C10.852 17.4224 10.5777 17.148 10.5777 16.8097H8.12691C8.12691 18.5015 9.49847 19.8731 11.1904 19.8731V17.4224ZM10.5777 16.8097C10.5777 16.4712 10.852 16.197 11.1904 16.197V13.7462C9.49847 13.7462 8.12691 15.1178 8.12691 16.8097H10.5777ZM11.1904 16.197C11.5287 16.197 11.803 16.4712 11.803 16.8097H14.2538C14.2538 15.1178 12.8822 13.7462 11.1904 13.7462V16.197ZM16.9025 3.23766L14.6127 5.52744L16.3456 7.26039L18.6354 4.97062L16.9025 3.23766ZM15.1426 5.21569L8.78846 7.03114L9.46173 9.3876L15.8158 7.57214L15.1426 5.21569ZM5.18754 10.8224L2.0314 24.499L4.4194 25.0501L7.57554 11.3735L5.18754 10.8224ZM3.50094 25.9686L17.1776 22.8124L16.6265 20.4244L2.94986 23.5806L3.50094 25.9686ZM20.9689 19.2115L22.7843 12.8575L20.4279 12.1841L18.6123 18.5383L20.9689 19.2115ZM22.4725 13.3873L24.7623 11.0975L23.0293 9.36457L20.7396 11.6544L22.4725 13.3873ZM24.7623 6.59184L21.4082 3.23766L19.6752 4.97062L23.0293 8.32479L24.7623 6.59184ZM24.7623 11.0975C24.9907 10.8692 25.2147 10.6465 25.3873 10.4432C25.5692 10.2289 25.7648 9.95701 25.8801 9.60199L23.5493 8.84467C23.5737 8.76945 23.6025 8.75876 23.519 8.8571C23.4262 8.96637 23.2863 9.10763 23.0293 9.36457L24.7623 11.0975ZM23.0293 8.32479C23.2863 8.58172 23.4262 8.72298 23.519 8.83226C23.6025 8.93059 23.5737 8.9199 23.5493 8.84467L25.8801 8.08735C25.7648 7.73234 25.5692 7.46044 25.3873 7.24618C25.2147 7.04288 24.9907 6.82018 24.7623 6.59184L23.0293 8.32479ZM25.8801 9.60199C26.04 9.10978 26.04 8.57956 25.8801 8.08735L23.5493 8.84467L25.8801 9.60199ZM17.1776 22.8124C17.9152 22.6422 18.5599 22.5085 19.1064 22.1761L17.8328 20.0824C17.7041 20.1606 17.5289 20.2162 16.6265 20.4244L17.1776 22.8124ZM18.6123 18.5383C18.358 19.4287 18.2934 19.6008 18.2086 19.7253L20.2341 21.1051C20.5943 20.5765 20.7609 19.9394 20.9689 19.2115L18.6123 18.5383ZM19.1064 22.1761C19.5544 21.9037 19.9389 21.5384 20.2341 21.1051L18.2086 19.7253C18.1102 19.8698 17.9821 19.9915 17.8328 20.0824L19.1064 22.1761ZM8.78846 7.03114C8.06056 7.23911 7.42355 7.40576 6.89488 7.7659L8.27464 9.79135C8.39911 9.70657 8.57127 9.64202 9.46173 9.3876L8.78846 7.03114ZM7.57554 11.3735C7.78378 10.4711 7.83938 10.2959 7.91764 10.1672L5.82385 8.89355C5.49139 9.44007 5.35777 10.0848 5.18754 10.8224L7.57554 11.3735ZM6.89488 7.7659C6.46153 8.06111 6.09635 8.44559 5.82385 8.89355L7.91764 10.1672C8.00847 10.0179 8.1302 9.88975 8.27464 9.79135L6.89488 7.7659ZM18.6354 4.97062C18.8923 4.71369 19.0336 4.57376 19.1429 4.481C19.2412 4.39752 19.2306 4.42629 19.1553 4.45072L18.398 2.11992C18.0429 2.23528 17.7711 2.43081 17.5568 2.61269C17.3535 2.78529 17.1309 3.00934 16.9025 3.23766L18.6354 4.97062ZM21.4082 3.23766C21.1798 3.00932 20.9571 2.78529 20.7538 2.61269C20.5395 2.43081 20.2677 2.23528 19.9126 2.11992L19.1553 4.45072C19.0801 4.42629 19.0694 4.39753 19.1677 4.481C19.277 4.57376 19.4183 4.71368 19.6752 4.97062L21.4082 3.23766ZM19.1553 4.45072L19.9126 2.11992C19.4204 1.96 18.8903 1.96 18.398 2.11992L19.1553 4.45072ZM14.6127 7.26039L20.7396 13.3873L22.4725 11.6544L16.3456 5.52744L14.6127 7.26039ZM9.02417 17.2427L2.35892 23.9082L4.09188 25.6411L10.7571 18.9756L9.02417 17.2427Z"
    fill="currentColor" />
</svg>