<svg>
  <path
    d="M14.1892 26H14.1819C10.5405 25.976 7.74111 24.7952 5.85939 22.4912C4.18758 20.4392 3.3236 17.5856 3.29431 14.0096V13.9928C3.3236 10.4144 4.18758 7.5632 5.86184 5.5112C7.74111 3.2048 10.5429 2.024 14.1819 2H14.1892H14.1965C16.9886 2.0192 19.3243 2.7248 21.1376 4.0976C22.8436 5.3888 24.0444 7.2272 24.7058 9.5648L22.6313 10.1336C21.5086 6.1736 18.6677 4.1504 14.1868 4.1192C11.2287 4.1408 8.9907 5.0552 7.53609 6.836C6.17667 8.504 5.47378 10.9136 5.44693 14C5.47378 17.0864 6.17667 19.496 7.53854 21.164C8.99314 22.9472 11.2312 23.8616 14.1892 23.8808C16.8568 23.8616 18.6214 23.2496 20.0882 21.836C21.7624 20.2232 21.7331 18.2432 21.1962 17.0384C20.8814 16.328 20.3078 15.7376 19.5341 15.2888C19.3389 16.64 18.902 17.7344 18.2284 18.56C17.3278 19.6616 16.0514 20.264 14.4357 20.3504C13.213 20.4152 12.0341 20.132 11.1214 19.5488C10.0402 18.86 9.40804 17.8088 9.33971 16.5848C9.27381 15.3944 9.75461 14.3 10.6918 13.5032C11.5875 12.7424 12.8469 12.296 14.3356 12.212C15.4315 12.152 16.459 12.2 17.4059 12.3536C17.279 11.612 17.0252 11.0216 16.6445 10.5968C16.1222 10.0112 15.3143 9.7136 14.2453 9.7064C14.2356 9.7064 14.2258 9.7064 14.216 9.7064C13.357 9.7064 12.1903 9.9392 11.4484 11.0264L9.66187 9.848C10.6576 8.3936 12.2733 7.592 14.216 7.592C14.2307 7.592 14.2453 7.592 14.26 7.592C17.5084 7.6112 19.4438 9.5672 19.6366 12.98C19.7465 13.0256 19.8563 13.0736 19.9637 13.1216C21.4793 13.8224 22.5873 14.8832 23.1707 16.1912C23.9809 18.0128 24.0566 20.9816 21.5965 23.3504C19.7147 25.16 17.4328 25.9784 14.1965 26H14.1892ZM15.2094 14.3096C14.9629 14.3096 14.7139 14.3168 14.4577 14.3312C12.5906 14.4344 11.4264 15.2768 11.4923 16.4744C11.5607 17.7296 12.9689 18.3128 14.3234 18.2408C15.5681 18.176 17.1887 17.6984 17.4621 14.5304C16.7738 14.384 16.0197 14.3096 15.2094 14.3096Z"
    fill="black" />
</svg>