<svg>
  <path fill-rule="evenodd" clip-rule="evenodd"
    d="M17.5784 23.132C18.1232 22.292 18.6692 21.212 19.0616 19.826C19.9676 20.174 20.5892 20.5892 20.9708 20.9168C19.9932 21.8878 18.8223 22.6421 17.534 23.1308H17.5784V23.132ZM7.0184 20.906C7.4216 20.5784 8.0324 20.174 8.9384 19.814C9.3416 21.2108 9.866 22.2908 10.4216 23.1308C9.1524 22.6316 8.00084 21.8739 7.04 20.906H7.0184ZM19.7816 12.9092C19.748 11.9372 19.6496 10.9664 19.4876 10.0076C20.6876 9.5708 21.56 9.0476 22.1708 8.5676C23.0225 9.87139 23.55 11.36 23.7092 12.9092H19.7816ZM9.014 7.8692C8.37901 7.63524 7.78059 7.31199 7.2368 6.9092C8.1565 6.02966 9.23807 5.33686 10.4216 4.8692C9.9092 5.6324 9.4076 6.614 9.0032 7.8692H9.0152H9.014ZM17.5784 4.8692C18.7627 5.33536 19.8445 6.02833 20.7632 6.9092C20.2188 7.31099 19.6205 7.63415 18.986 7.8692C18.6608 6.80586 18.183 5.79534 17.5676 4.8692H17.5784ZM17.36 10.5416C17.468 11.2616 17.5784 12.0368 17.6 12.9092H10.4C10.4324 12.0368 10.508 11.2508 10.6184 10.5416C12.8444 10.9424 15.1232 10.9424 17.3492 10.5416H17.36ZM14 8.654C12.908 8.654 11.948 8.5676 11.132 8.4368C12.0032 5.7524 13.3568 4.6724 14 4.2908C14.6216 4.6724 15.986 5.7632 16.8584 8.4368C15.9129 8.58487 14.9571 8.6575 14 8.654ZM5.8184 8.5676C6.63412 9.18779 7.54355 9.6739 8.5124 10.0076C8.35045 10.9672 8.25223 11.9366 8.2184 12.9092H4.2464C4.41869 11.3561 4.96152 9.86716 5.8292 8.5676H5.8184ZM4.2584 15.0908H8.2184C8.2616 16.0292 8.3264 16.8908 8.4584 17.6768C7.45332 18.022 6.51551 18.5384 5.6864 19.2032C4.90176 17.9589 4.40942 16.5528 4.2464 15.0908H4.2584ZM14 16.8368C12.692 16.8368 11.5676 16.9448 10.586 17.12C10.4901 16.4475 10.428 15.7707 10.4 15.092H17.6C17.5676 15.8216 17.5124 16.508 17.426 17.12C16.2956 16.9157 15.1487 16.8172 14 16.826V16.8368ZM14 23.7092C13.346 23.3168 11.906 22.1492 11.0324 19.2368C12.0133 19.077 13.0063 19.0039 14 19.0184C15.146 19.0184 16.1276 19.094 16.9784 19.2368C16.106 22.1816 14.666 23.3168 14.0108 23.7092H14ZM22.3124 19.1924C21.4843 18.5268 20.5467 18.0103 19.5416 17.666C19.6731 16.8132 19.7533 15.9532 19.7816 15.0908H23.7536C23.589 16.5491 23.0955 17.9513 22.3124 19.1924ZM14 2C7.3724 2 2 7.3724 2 14C2 20.6276 7.3724 26 14 26C20.6276 26 26 20.6276 26 14C26 7.3724 20.6276 2 14 2Z"
    fill="currentColor" />
</svg>