<svg>
  <mask id="mask0_36_2" style="mask-type:luminance" maskUnits="userSpaceOnUse" x="2" y="5" width="24" height="18">
    <path
      d="M24.2857 5.42857H3.71429C2.76751 5.42857 2 6.19609 2 7.14286V20.8571C2 21.8039 2.76751 22.5714 3.71429 22.5714H24.2857C25.2325 22.5714 26 21.8039 26 20.8571V7.14286C26 6.19609 25.2325 5.42857 24.2857 5.42857Z"
      fill="white" />
  </mask>
  <g mask="url(#mask0_36_2)">
    <path
      d="M24.2857 5.64286H3.71423C2.88581 5.64286 2.21423 6.31443 2.21423 7.14286V20.8571C2.21423 21.6856 2.88581 22.3571 3.71423 22.3571H24.2857C25.1141 22.3571 25.7857 21.6856 25.7857 20.8571V7.14286C25.7857 6.31443 25.1141 5.64286 24.2857 5.64286Z"
      fill="white" stroke="#F5F5F5" stroke-width="14.2857" />
    <mask id="mask1_36_2" style="mask-type:alpha" maskUnits="userSpaceOnUse" x="-5" y="-2" width="38" height="32">
      <path
        d="M24.2857 5.64286H3.71423C2.88581 5.64286 2.21423 6.31443 2.21423 7.14286V20.8571C2.21423 21.6856 2.88581 22.3571 3.71423 22.3571H24.2857C25.1141 22.3571 25.7857 21.6856 25.7857 20.8571V7.14286C25.7857 6.31443 25.1141 5.64286 24.2857 5.64286Z"
        fill="white" stroke="white" stroke-width="14.2857" />
    </mask>
    <g mask="url(#mask1_36_2)">
      <path fill-rule="evenodd" clip-rule="evenodd" d="M2 16.8571H26V11.1429H2V16.8571Z" fill="#0C47B7" />
      <path fill-rule="evenodd" clip-rule="evenodd" d="M2 22.5714H26V16.8571H2V22.5714Z" fill="#E53B35" />
    </g>
  </g>
</svg>